<svg xmlns="http://www.w3.org/2000/svg" width="120" height="160" viewBox="0 0 120 160" stroke="#1B1B1F" stroke-width="3" stroke-linejoin="round" stroke-linecap="round" fill="#9FB89A">
  <path d="M40 12 C30 14 28 38 32 70 C34 80 44 82 48 76 C52 60 52 30 46 16 C44 12 42 11 40 12Z" transform="rotate(-4 40 44)"/>
  <path d="M41 22 C37 26 36 44 39 66 C41 72 45 72 46 68 C48 52 48 32 44 22Z" transform="rotate(-4 41 44)" fill="#7C947B" stroke-width="2"/>
  <path d="M80 12 C90 14 92 38 88 70 C86 80 76 82 72 76 C68 60 68 30 74 16 C76 12 78 11 80 12Z" transform="rotate(4 80 44)"/>
  <path d="M79 22 C83 26 84 44 81 66 C79 72 75 72 74 68 C72 52 72 32 76 22Z" transform="rotate(4 79 44)" fill="#7C947B" stroke-width="2"/>
  <path d="M50 74 Q52 62 60 62 Q68 62 70 74Z"/>
  <path d="M18 100 Q18 74 60 70 Q102 74 102 100 Q102 132 84 142 Q60 150 36 142 Q18 132 18 100Z"/>
  <path d="M50 96 L70 96" stroke-width="3" fill="none"/>
  <path d="M28 90 Q28 86 32 86 H50 Q54 86 54 90 V100 Q54 106 48 106 H34 Q28 106 28 100Z" fill="#1B1B1F"/>
  <path d="M66 90 Q66 86 70 86 H88 Q92 86 92 90 V100 Q92 106 86 106 H72 Q66 106 66 100Z" fill="#1B1B1F"/>
  <path d="M36 88 L32 102 M42 88 L38 102 M74 88 L70 102 M80 88 L76 102" stroke="#FFFFFF" stroke-width="2.5" fill="none"/>
  <path d="M28 94 L22 94 M92 94 L98 94" stroke-width="3" fill="none"/>
  <path d="M55 118 L65 118 L60 126 Z" fill="#1B1B1F" stroke-width="0"/>
  <path d="M60 126 V132 M60 132 Q54 136 50 132 M60 132 Q66 136 70 132" stroke-width="2.5" fill="none"/>
  <rect x="56.5" y="134" width="7" height="8" fill="#FFFFFF" stroke-width="2"/>
  <path d="M20 126 Q32 128 44 130 M20 134 Q32 134 44 134 M100 126 Q88 128 76 130 M100 134 Q88 134 76 134" stroke-width="2" fill="none"/>
</svg>
